<svg width="20" height="20" viewBox="0 0 20 20" fill="none" xmlns="http://www.w3.org/2000/svg">
<path id="Vector" d="M10.7222 17.2571C10.2925 17.568 9.68368 17.568 9.25395 17.2571L1.91286 11.9489C1.48314 11.638 0.886303 11.638 0.45658 11.9489C-0.152193 12.3931 -0.152193 13.2482 0.45658 13.6924L8.52581 19.5336C9.38526 20.1555 10.5909 20.1555 11.4623 19.5336L19.5315 13.6924C20.1403 13.2482 20.1403 12.3931 19.5315 11.9489L19.5195 11.9378C19.0898 11.6269 18.493 11.6269 18.0633 11.9378L10.7222 17.2571ZM11.4742 13.9034L19.5434 8.06219C20.1522 7.61799 20.1522 6.7518 19.5434 6.30761L11.4742 0.466408C10.6147 -0.155469 9.40913 -0.155469 8.53775 0.466408L0.468517 6.31871C-0.140256 6.76291 -0.140256 7.62909 0.468517 8.07329L8.53775 13.9145C9.3972 14.5364 10.6147 14.5364 11.4742 13.9034Z" fill="#D1D3F9"/>
</svg>
