<svg width="25" height="25" viewBox="0 0 25 25" fill="none" xmlns="http://www.w3.org/2000/svg">
<path d="M23.04 6.03344H19.2V2.19344C19.2 1.68422 18.9977 1.19586 18.6376 0.835792C18.2776 0.475723 17.7892 0.273438 17.28 0.273438H1.92C1.41078 0.273438 0.922425 0.475723 0.562355 0.835792C0.202285 1.19586 0 1.68422 0 2.19344V17.5534C0.000563655 17.734 0.0520646 17.9108 0.148586 18.0635C0.245108 18.2161 0.382735 18.3385 0.545657 18.4164C0.708578 18.4944 0.890185 18.5248 1.06961 18.5042C1.24904 18.4835 1.41901 18.4127 1.56 18.2998L5.76 14.9134V18.5134C5.76 19.0227 5.96229 19.511 6.32236 19.8711C6.68243 20.2312 7.17078 20.4334 7.68 20.4334H18.9108L23.4 24.0598C23.5699 24.1972 23.7815 24.2726 24 24.2734C24.2546 24.2734 24.4988 24.1723 24.6788 23.9923C24.8589 23.8122 24.96 23.568 24.96 23.3134V7.95344C24.96 7.44422 24.7577 6.95586 24.3976 6.59579C24.0376 6.23572 23.5492 6.03344 23.04 6.03344ZM5.106 12.967L1.92 15.5434V2.19344H17.28V12.7534H5.7096C5.48988 12.7535 5.27683 12.8289 5.106 12.967ZM23.04 21.3034L19.854 18.727C19.6841 18.5896 19.4725 18.5143 19.254 18.5134H7.68V14.6734H17.28C17.7892 14.6734 18.2776 14.4712 18.6376 14.1111C18.9977 13.751 19.2 13.2627 19.2 12.7534V7.95344H23.04V21.3034Z" fill="#6D6BFF"/>
</svg>
