<svg width="16" height="17" viewBox="0 0 16 17" fill="none" xmlns="http://www.w3.org/2000/svg">
<path id="Vector" fill-rule="evenodd" clip-rule="evenodd" d="M9.6 0.5H6.4V2.30178C5.81333 2.45289 5.25778 2.68489 4.74844 2.98622L3.47556 1.71156L1.21156 3.97556L2.48622 5.24933C2.18147 5.76489 1.95105 6.3209 1.80178 6.90089H0V10.1009H1.80178C1.95289 10.6876 2.18489 11.2431 2.48622 11.7524L1.21156 13.0244L3.47467 15.2876L4.74844 14.0129C5.25778 14.3142 5.81244 14.5462 6.4 14.6973V16.5H9.6V14.6982C10.18 14.5489 10.736 14.3185 11.2516 14.0138L12.5253 15.2884L14.7884 13.0253L13.5138 11.7507C13.8184 11.2354 14.0488 10.6797 14.1982 10.1H16V6.9H14.1982C14.0489 6.32001 13.8185 5.76401 13.5138 5.24844L14.7884 3.97467L12.5253 1.71156L11.2507 2.98622C10.7354 2.68154 10.1797 2.45112 9.6 2.30178V0.5ZM5.6 8.5C5.6 7.86348 5.85286 7.25303 6.30294 6.80294C6.75303 6.35286 7.36348 6.1 8 6.1C8.63652 6.1 9.24697 6.35286 9.69706 6.80294C10.1471 7.25303 10.4 7.86348 10.4 8.5C10.4 9.13652 10.1471 9.74697 9.69706 10.1971C9.24697 10.6471 8.63652 10.9 8 10.9C7.36348 10.9 6.75303 10.6471 6.30294 10.1971C5.85286 9.74697 5.6 9.13652 5.6 8.5Z" fill="white"/>
</svg>
