<svg width="44" height="44" viewBox="0 0 44 44" fill="none" xmlns="http://www.w3.org/2000/svg">
<g id="Solana (SOL)">
<g id="Solana (SOL)_2">
<circle id="Solana (SOL)_3" cx="21.6224" cy="21.6233" r="21.6224" fill="#714DFF"/>
<g id="Solana (SOL)_4">
<path id="Solana (SOL)_5" d="M13.4055 26.746C13.5553 26.5962 13.7613 26.5088 13.9799 26.5088H33.7959C34.158 26.5088 34.339 26.9458 34.083 27.2018L30.1685 31.1163C30.0187 31.2661 29.8127 31.3535 29.5942 31.3535H9.77816C9.41605 31.3535 9.235 30.9165 9.49097 30.6605L13.4055 26.746Z" fill="white"/>
<path id="Solana (SOL)_6" d="M13.4055 12.1308C13.5616 11.981 13.7676 11.8936 13.9799 11.8936H33.7959C34.158 11.8936 34.339 12.3306 34.083 12.5866L30.1685 16.5011C30.0187 16.6509 29.8127 16.7383 29.5942 16.7383H9.77816C9.41605 16.7383 9.235 16.3013 9.49097 16.0453L13.4055 12.1308Z" fill="white"/>
<path id="Solana (SOL)_7" d="M30.1685 19.3915C30.0187 19.2417 29.8127 19.1543 29.5942 19.1543H9.77816C9.41605 19.1543 9.235 19.5913 9.49097 19.8473L13.4055 23.7618C13.5553 23.9116 13.7613 23.999 13.9799 23.999H33.7959C34.158 23.999 34.339 23.562 34.083 23.306L30.1685 19.3915Z" fill="white"/>
</g>
</g>
</g>
</svg>
