<svg width="24" height="25" viewBox="0 0 24 25" fill="none" xmlns="http://www.w3.org/2000/svg">
<path fill-rule="evenodd" clip-rule="evenodd" d="M9.1818 3.5479L7.98534 6.78126C7.64901 7.69019 6.93238 8.40682 6.02345 8.74316L2.79009 9.93961L6.02345 11.1361C6.93238 11.4724 7.64901 12.189 7.98534 13.098L9.1818 16.3313L10.3783 13.098C10.7146 12.189 11.4312 11.4724 12.3401 11.1361L15.5735 9.93961L12.3401 8.74316C11.4312 8.40682 10.7146 7.69019 10.3783 6.78126L9.1818 3.5479ZM10.5165 1.68707C10.058 0.44806 8.30558 0.44806 7.8471 1.68707L6.20575 6.12275C6.06161 6.51229 5.75448 6.81942 5.36494 6.96357L0.929258 8.60492C-0.309753 9.06339 -0.309753 10.8158 0.929258 11.2743L5.36494 12.9157C5.75448 13.0598 6.06161 13.3669 6.20575 13.7565L7.8471 18.1921C8.30558 19.4312 10.058 19.4312 10.5165 18.1921L12.1578 13.7565C12.302 13.3669 12.6091 13.0598 12.9987 12.9157L17.4343 11.2743C18.6733 10.8158 18.6733 9.06339 17.4343 8.60492L12.9987 6.96357C12.6091 6.81942 12.302 6.51229 12.1578 6.12275L10.5165 1.68707Z" fill="#6D6BFF"/>
<path fill-rule="evenodd" clip-rule="evenodd" d="M18.6692 16.4124L18.2334 17.5901C17.9932 18.2393 17.4813 18.7512 16.8321 18.9915L15.6543 19.4272L16.8321 19.863C17.4813 20.1033 17.9932 20.6152 18.2334 21.2644L18.6692 22.4421L19.105 21.2644C19.3452 20.6152 19.8571 20.1033 20.5064 19.863L21.6841 19.4272L20.5064 18.9915C19.8571 18.7512 19.3452 18.2393 19.105 17.5901L18.6692 16.4124ZM19.559 14.7162C19.2534 13.8902 18.0851 13.8902 17.7794 14.7162L16.8987 17.0962C16.8026 17.3559 16.5979 17.5607 16.3382 17.6568L13.9581 18.5375C13.1321 18.8431 13.1321 20.0114 13.9581 20.317L16.3382 21.1977C16.5979 21.2938 16.8026 21.4986 16.8987 21.7583L17.7794 24.1383C18.0851 24.9643 19.2534 24.9643 19.559 24.1383L20.4397 21.7583C20.5358 21.4986 20.7405 21.2938 21.0002 21.1977L23.3803 20.317C24.2063 20.0114 24.2063 18.8431 23.3803 18.5375L21.0002 17.6568C20.7405 17.5607 20.5358 17.3559 20.4397 17.0962L19.559 14.7162Z" fill="#6D6BFF"/>
</svg>
