<svg width="44" height="44" viewBox="0 0 44 44" fill="none" xmlns="http://www.w3.org/2000/svg">
<g id="TRON (TRX)">
<g id="TRON (TRX)_2">
<path id="TRON (TRX)_3" fill-rule="evenodd" clip-rule="evenodd" d="M21.6224 43.2457C9.73007 43.2457 0 33.5159 0 21.5157C0.108112 9.62362 9.73007 -0.106241 21.7305 0.00186885C33.6228 0.109978 43.2447 9.73174 43.2447 21.84C43.1366 33.624 33.5147 43.2457 21.6224 43.2457Z" fill="#FC070C"/>
<g id="TRON (TRX)_4">
<path id="TRON (TRX)_5" fill-rule="evenodd" clip-rule="evenodd" d="M37.0277 17.0493C36.4376 16.5044 35.7534 15.8401 35.0405 15.1479L35.0405 15.1479C34.0391 14.1756 32.981 13.1483 32.0471 12.3194L31.9525 12.2532C31.7952 12.1268 31.6177 12.0277 31.4275 11.9599L30.7067 11.8255C25.7336 10.8975 9.61384 7.88976 9.28224 7.93009C9.18417 7.94382 9.09042 7.97938 9.00791 8.03415L8.91804 8.10509C8.80738 8.21748 8.72334 8.35324 8.67209 8.5024L8.64844 8.56389V8.89971V8.95174C9.74284 11.9992 12.5858 18.8048 15.2108 25.0887L15.2108 25.0887C17.4301 30.4013 19.4936 35.341 20.213 37.3216L20.2133 37.3224C20.3079 37.6158 20.4876 38.173 20.8231 38.2013H20.8988C21.0786 38.2013 21.8448 37.1891 21.8448 37.1891C21.8448 37.1891 35.5425 20.5778 36.9284 18.8088C37.1078 18.5909 37.2661 18.3565 37.4014 18.1088C37.4716 17.7145 37.3297 17.3123 37.0277 17.0493ZM25.3594 18.9839L31.2055 14.1357L34.6347 17.2953L25.3594 18.9839ZM13.0234 10.418L23.0886 18.6669L29.3084 13.4214L13.0234 10.418ZM23.9953 20.8282L34.2969 19.168L22.5195 33.3576L23.9953 20.8282ZM22.2464 20.228L11.6562 11.2412L20.714 33.3676L22.2464 20.228Z" fill="white"/>
</g>
</g>
</g>
</svg>
